# xmcd
#
# Track frame offsets:
#	150
#	18841
#	38062
#	55927
#	74756
#	94963
#	114802
#	134117
#
# Disc length: 2067 seconds
#
# Revision: 0
# Processed by: cddbd v1.5.1PL0 Copyright (c) Steve Scherf et al.
# Submitted via: dBpowerAMP V4.0
#
DISCID=6e081108
DTITLE=Leonardo - Metadi Di Mi
DYEAR=2005
DGENRE=Kizomba
TTITLE0=Rabola Girl [Ft. Eliei]
TTITLE1=Nha Coraçon [Ft. Eliei]
TTITLE2=Talvez Um Dia [Ft. Eliei and Helvio]
TTITLE3=Mi Cu Bo Ka Sta Da
TTITLE4=Metadi Di Mi [Ft. Eliei and Ciro Cruz]
TTITLE5=Maybe [Ft. Eliei and Helvio]
TTITLE6=Ser Di Meu [Ft. Eliei and Helvio]
TTITLE7=Toca Pa Mi [Ft. Eliei]
EXTD=Tiago Jesus: www.lusoafrica.net
EXTT0=
EXTT1=
EXTT2=
EXTT3=
EXTT4=
EXTT5=
EXTT6=
EXTT7=
PLAYORDER=
